<svg width="23" height="28" viewBox="0 0 23 28" fill="none" xmlns="http://www.w3.org/2000/svg">
<path d="M0 1.70454C0 0.763181 0.762566 0 1.70317 0H9.65129C10.5919 0 11.3545 0.763181 11.3545 1.70454V9.0909H1.70317C0.762566 9.0909 0 8.32772 0 7.38635V1.70454Z" fill="white"/>
<path d="M11.3545 9.09082H21.0058C21.9464 9.09082 22.709 9.854 22.709 10.7954V16.4772C22.709 17.4185 21.9464 18.1817 21.0058 18.1817H11.3545V9.09082Z" fill="white"/>
<path d="M0 19.8862C0 18.9448 0.762566 18.1816 1.70317 18.1816H11.3545V25.568C11.3545 26.5094 10.5919 27.2725 9.65129 27.2725H1.70317C0.762566 27.2725 0 26.5094 0 25.568V19.8862Z" fill="white"/>
</svg>
